# xmcd
#
# Track frame offsets: 
#        150
#        19678
#        38863
#        57890
#        75540
#        95593
#        116058
#        134095
#        147938
#        174350
#
# Disc length: 2588 seconds
#
# Revision: 1
# Processed by: cddbd v1.5.2PL0 Copyright (c) Steve Scherf et al.
# Submitted via: ExactAudioCopyFreeDBPlugin 1.0
#
DISCID=850a1a0a
DTITLE=GAO - Wonder Child
DYEAR=1994
DGENRE=JPop
TTITLE0=イーナ！
TTITLE1=宝物にしたい
TTITLE2=黒い髪の恋人
TTITLE3=ゼンマイ仕掛けの幸福
TTITLE4=アリガトウ…
TTITLE5=トラブルフィンガー
TTITLE6=突然君と出会いたい
TTITLE7=おしりの穴
TTITLE8=1987
TTITLE9=君への手紙
EXTD=YEAR: 1994
EXTT0=
EXTT1=
EXTT2=
EXTT3=
EXTT4=
EXTT5=
EXTT6=
EXTT7=
EXTT8=
EXTT9=
PLAYORDER=
